<mxfile host="app.diagrams.net" modified="2021-07-13T03:28:07.253Z" agent="5.0 (Windows)" etag="cGfhB8HDyiNeo4WdxXzS" version="14.8.6" type="github">
  <diagram id="C5RBs43oDa-KdzZeNtuy" name="Page-1">
    <mxGraphModel dx="2593" dy="1440" grid="1" gridSize="10" guides="1" tooltips="1" connect="1" arrows="1" fold="1" page="1" pageScale="1" pageWidth="827" pageHeight="1169" math="0" shadow="0">
      <root>
        <mxCell id="WIyWlLk6GJQsqaUBKTNV-0" />
        <mxCell id="WIyWlLk6GJQsqaUBKTNV-1" parent="WIyWlLk6GJQsqaUBKTNV-0" />
        <mxCell id="WIyWlLk6GJQsqaUBKTNV-2" value="" style="rounded=0;html=1;jettySize=auto;orthogonalLoop=1;fontSize=11;endArrow=block;endFill=0;endSize=8;strokeWidth=1;shadow=0;labelBackgroundColor=none;edgeStyle=orthogonalEdgeStyle;entryX=0.483;entryY=0.159;entryDx=0;entryDy=0;entryPerimeter=0;" parent="WIyWlLk6GJQsqaUBKTNV-1" target="2YU0AlfoAJH_kkXdUEGW-1" edge="1">
          <mxGeometry relative="1" as="geometry">
            <mxPoint x="219.5" y="70" as="sourcePoint" />
            <mxPoint x="219.5" y="120" as="targetPoint" />
            <Array as="points">
              <mxPoint x="218" y="70" />
            </Array>
          </mxGeometry>
        </mxCell>
        <mxCell id="WIyWlLk6GJQsqaUBKTNV-4" value="Yes" style="rounded=0;html=1;jettySize=auto;orthogonalLoop=1;fontSize=11;endArrow=block;endFill=0;endSize=8;strokeWidth=1;shadow=0;labelBackgroundColor=none;edgeStyle=orthogonalEdgeStyle;" parent="WIyWlLk6GJQsqaUBKTNV-1" edge="1">
          <mxGeometry y="20" relative="1" as="geometry">
            <mxPoint as="offset" />
            <mxPoint x="219.5" y="350" as="sourcePoint" />
            <mxPoint x="219.5" y="390" as="targetPoint" />
          </mxGeometry>
        </mxCell>
        <mxCell id="2YU0AlfoAJH_kkXdUEGW-1" value="&lt;div&gt;&lt;span&gt;Mengisi data diri pada&lt;/span&gt;&lt;/div&gt;&lt;div&gt;&lt;span&gt;form online web&lt;/span&gt;&lt;/div&gt;&lt;div&gt;&lt;span&gt;&lt;/span&gt;&lt;/div&gt;" style="shape=manualInput;whiteSpace=wrap;html=1;" vertex="1" parent="WIyWlLk6GJQsqaUBKTNV-1">
          <mxGeometry x="150" y="110" width="140" height="90" as="geometry" />
        </mxCell>
        <mxCell id="2YU0AlfoAJH_kkXdUEGW-2" value="Start" style="strokeWidth=2;html=1;shape=mxgraph.flowchart.terminator;whiteSpace=wrap;" vertex="1" parent="WIyWlLk6GJQsqaUBKTNV-1">
          <mxGeometry x="175" y="30" width="90" height="40" as="geometry" />
        </mxCell>
        <mxCell id="2YU0AlfoAJH_kkXdUEGW-4" value="&lt;div&gt;&lt;span&gt;Memilih tipe&lt;/span&gt;&lt;/div&gt;&lt;div&gt;&lt;span&gt;sertifikasi:&lt;/span&gt;&lt;/div&gt;&lt;div&gt;&lt;span&gt;TOEIC atau BNSP&lt;br&gt;&lt;/span&gt;&lt;/div&gt;" style="rhombus;whiteSpace=wrap;html=1;" vertex="1" parent="WIyWlLk6GJQsqaUBKTNV-1">
          <mxGeometry x="147.5" y="230" width="145" height="120" as="geometry" />
        </mxCell>
        <mxCell id="2YU0AlfoAJH_kkXdUEGW-5" value="&lt;span&gt;memilih mengikuti pelatihan persiapan + sertifikasi atau sertifikasi only&lt;/span&gt;" style="rhombus;whiteSpace=wrap;html=1;" vertex="1" parent="WIyWlLk6GJQsqaUBKTNV-1">
          <mxGeometry x="130" y="390" width="180" height="200" as="geometry" />
        </mxCell>
        <mxCell id="2YU0AlfoAJH_kkXdUEGW-7" value="No" style="edgeStyle=orthogonalEdgeStyle;rounded=0;html=1;jettySize=auto;orthogonalLoop=1;fontSize=11;endArrow=block;endFill=0;endSize=8;strokeWidth=1;shadow=0;labelBackgroundColor=none;exitX=1;exitY=0.5;exitDx=0;exitDy=0;entryX=1;entryY=0.5;entryDx=0;entryDy=0;entryPerimeter=0;" edge="1" parent="WIyWlLk6GJQsqaUBKTNV-1" source="2YU0AlfoAJH_kkXdUEGW-4" target="2YU0AlfoAJH_kkXdUEGW-29">
          <mxGeometry y="10" relative="1" as="geometry">
            <mxPoint as="offset" />
            <mxPoint x="310" y="330" as="sourcePoint" />
            <mxPoint x="340" y="1340" as="targetPoint" />
            <Array as="points">
              <mxPoint x="340" y="290" />
              <mxPoint x="340" y="1340" />
            </Array>
          </mxGeometry>
        </mxCell>
        <mxCell id="2YU0AlfoAJH_kkXdUEGW-8" value="" style="rounded=0;html=1;jettySize=auto;orthogonalLoop=1;fontSize=11;endArrow=block;endFill=0;endSize=8;strokeWidth=1;shadow=0;labelBackgroundColor=none;edgeStyle=orthogonalEdgeStyle;" edge="1" parent="WIyWlLk6GJQsqaUBKTNV-1">
          <mxGeometry relative="1" as="geometry">
            <mxPoint x="219.5" y="200" as="sourcePoint" />
            <mxPoint x="220" y="230" as="targetPoint" />
            <Array as="points">
              <mxPoint x="220" y="230" />
              <mxPoint x="220" y="230" />
            </Array>
          </mxGeometry>
        </mxCell>
        <mxCell id="2YU0AlfoAJH_kkXdUEGW-9" value="No" style="edgeStyle=orthogonalEdgeStyle;rounded=0;html=1;jettySize=auto;orthogonalLoop=1;fontSize=11;endArrow=block;endFill=0;endSize=8;strokeWidth=1;shadow=0;labelBackgroundColor=none;exitX=0;exitY=0.5;exitDx=0;exitDy=0;entryX=0;entryY=0.5;entryDx=0;entryDy=0;entryPerimeter=0;" edge="1" parent="WIyWlLk6GJQsqaUBKTNV-1" source="2YU0AlfoAJH_kkXdUEGW-5" target="2YU0AlfoAJH_kkXdUEGW-29">
          <mxGeometry y="10" relative="1" as="geometry">
            <mxPoint as="offset" />
            <mxPoint x="82.5" y="490" as="sourcePoint" />
            <mxPoint x="80" y="910" as="targetPoint" />
            <Array as="points">
              <mxPoint x="80" y="490" />
              <mxPoint x="80" y="1340" />
            </Array>
          </mxGeometry>
        </mxCell>
        <mxCell id="2YU0AlfoAJH_kkXdUEGW-11" value="Upload &lt;span&gt;bukti pembayaran&lt;/span&gt;" style="strokeWidth=2;html=1;shape=mxgraph.flowchart.document2;whiteSpace=wrap;size=0.25;" vertex="1" parent="WIyWlLk6GJQsqaUBKTNV-1">
          <mxGeometry x="175" y="630" width="100" height="60" as="geometry" />
        </mxCell>
        <mxCell id="2YU0AlfoAJH_kkXdUEGW-12" value="Yes" style="rounded=0;html=1;jettySize=auto;orthogonalLoop=1;fontSize=11;endArrow=block;endFill=0;endSize=8;strokeWidth=1;shadow=0;labelBackgroundColor=none;edgeStyle=orthogonalEdgeStyle;" edge="1" parent="WIyWlLk6GJQsqaUBKTNV-1">
          <mxGeometry y="20" relative="1" as="geometry">
            <mxPoint as="offset" />
            <mxPoint x="219.41" y="590" as="sourcePoint" />
            <mxPoint x="219.41" y="630" as="targetPoint" />
          </mxGeometry>
        </mxCell>
        <mxCell id="2YU0AlfoAJH_kkXdUEGW-14" value="Submit" style="rounded=0;whiteSpace=wrap;html=1;" vertex="1" parent="WIyWlLk6GJQsqaUBKTNV-1">
          <mxGeometry x="160" y="740" width="120" height="60" as="geometry" />
        </mxCell>
        <mxCell id="2YU0AlfoAJH_kkXdUEGW-15" value="" style="rounded=0;html=1;jettySize=auto;orthogonalLoop=1;fontSize=11;endArrow=block;endFill=0;endSize=8;strokeWidth=1;shadow=0;labelBackgroundColor=none;edgeStyle=orthogonalEdgeStyle;" edge="1" parent="WIyWlLk6GJQsqaUBKTNV-1">
          <mxGeometry relative="1" as="geometry">
            <mxPoint x="219.41" y="690" as="sourcePoint" />
            <mxPoint x="219.41" y="740" as="targetPoint" />
          </mxGeometry>
        </mxCell>
        <mxCell id="2YU0AlfoAJH_kkXdUEGW-17" value="" style="rounded=0;html=1;jettySize=auto;orthogonalLoop=1;fontSize=11;endArrow=block;endFill=0;endSize=8;strokeWidth=1;shadow=0;labelBackgroundColor=none;edgeStyle=orthogonalEdgeStyle;" edge="1" parent="WIyWlLk6GJQsqaUBKTNV-1">
          <mxGeometry relative="1" as="geometry">
            <mxPoint x="219.4100000000003" y="800" as="sourcePoint" />
            <mxPoint x="219.4100000000003" y="850" as="targetPoint" />
          </mxGeometry>
        </mxCell>
        <mxCell id="2YU0AlfoAJH_kkXdUEGW-19" value="Membuat akun untuk user" style="rounded=0;whiteSpace=wrap;html=1;" vertex="1" parent="WIyWlLk6GJQsqaUBKTNV-1">
          <mxGeometry x="160" y="980" width="120" height="60" as="geometry" />
        </mxCell>
        <mxCell id="2YU0AlfoAJH_kkXdUEGW-21" value="&lt;div&gt;Menyimpan data&lt;/div&gt;&lt;div&gt;ke database&lt;br&gt;&lt;/div&gt;" style="shape=hexagon;perimeter=hexagonPerimeter2;whiteSpace=wrap;html=1;fixedSize=1;" vertex="1" parent="WIyWlLk6GJQsqaUBKTNV-1">
          <mxGeometry x="172.5" y="850" width="95" height="80" as="geometry" />
        </mxCell>
        <mxCell id="2YU0AlfoAJH_kkXdUEGW-22" value="" style="rounded=0;html=1;jettySize=auto;orthogonalLoop=1;fontSize=11;endArrow=block;endFill=0;endSize=8;strokeWidth=1;shadow=0;labelBackgroundColor=none;edgeStyle=orthogonalEdgeStyle;" edge="1" parent="WIyWlLk6GJQsqaUBKTNV-1">
          <mxGeometry relative="1" as="geometry">
            <mxPoint x="219.4100000000003" y="930" as="sourcePoint" />
            <mxPoint x="219.4100000000003" y="980" as="targetPoint" />
          </mxGeometry>
        </mxCell>
        <mxCell id="2YU0AlfoAJH_kkXdUEGW-24" value="Sign in" style="rhombus;whiteSpace=wrap;html=1;" vertex="1" parent="WIyWlLk6GJQsqaUBKTNV-1">
          <mxGeometry x="185" y="1089" width="80" height="80" as="geometry" />
        </mxCell>
        <mxCell id="2YU0AlfoAJH_kkXdUEGW-25" value="" style="rounded=0;html=1;jettySize=auto;orthogonalLoop=1;fontSize=11;endArrow=block;endFill=0;endSize=8;strokeWidth=1;shadow=0;labelBackgroundColor=none;edgeStyle=orthogonalEdgeStyle;" edge="1" parent="WIyWlLk6GJQsqaUBKTNV-1">
          <mxGeometry relative="1" as="geometry">
            <mxPoint x="224.4100000000003" y="1040" as="sourcePoint" />
            <mxPoint x="224.4100000000003" y="1090" as="targetPoint" />
          </mxGeometry>
        </mxCell>
        <mxCell id="2YU0AlfoAJH_kkXdUEGW-27" value="Yes" style="rounded=0;html=1;jettySize=auto;orthogonalLoop=1;fontSize=11;endArrow=block;endFill=0;endSize=8;strokeWidth=1;shadow=0;labelBackgroundColor=none;edgeStyle=orthogonalEdgeStyle;" edge="1" parent="WIyWlLk6GJQsqaUBKTNV-1">
          <mxGeometry y="20" relative="1" as="geometry">
            <mxPoint as="offset" />
            <mxPoint x="224.40999999999997" y="1169" as="sourcePoint" />
            <mxPoint x="224.40999999999997" y="1209" as="targetPoint" />
          </mxGeometry>
        </mxCell>
        <mxCell id="2YU0AlfoAJH_kkXdUEGW-28" value="&lt;div&gt;Menu nilai&lt;/div&gt;&lt;div&gt;dan keterangan&lt;/div&gt;&lt;div&gt;lulus/tidak lulus&lt;br&gt;&lt;/div&gt;" style="shape=parallelogram;perimeter=parallelogramPerimeter;whiteSpace=wrap;html=1;fixedSize=1;" vertex="1" parent="WIyWlLk6GJQsqaUBKTNV-1">
          <mxGeometry x="158.75" y="1210" width="132.5" height="60" as="geometry" />
        </mxCell>
        <mxCell id="2YU0AlfoAJH_kkXdUEGW-29" value="Stop" style="strokeWidth=2;html=1;shape=mxgraph.flowchart.terminator;whiteSpace=wrap;" vertex="1" parent="WIyWlLk6GJQsqaUBKTNV-1">
          <mxGeometry x="180" y="1320" width="90" height="40" as="geometry" />
        </mxCell>
        <mxCell id="2YU0AlfoAJH_kkXdUEGW-30" value="" style="rounded=0;html=1;jettySize=auto;orthogonalLoop=1;fontSize=11;endArrow=block;endFill=0;endSize=8;strokeWidth=1;shadow=0;labelBackgroundColor=none;edgeStyle=orthogonalEdgeStyle;" edge="1" parent="WIyWlLk6GJQsqaUBKTNV-1">
          <mxGeometry relative="1" as="geometry">
            <mxPoint x="224.4100000000003" y="1270" as="sourcePoint" />
            <mxPoint x="224.4100000000003" y="1320" as="targetPoint" />
          </mxGeometry>
        </mxCell>
        <mxCell id="2YU0AlfoAJH_kkXdUEGW-31" value="No" style="edgeStyle=orthogonalEdgeStyle;rounded=0;html=1;jettySize=auto;orthogonalLoop=1;fontSize=11;endArrow=block;endFill=0;endSize=8;strokeWidth=1;shadow=0;labelBackgroundColor=none;exitX=1;exitY=0.5;exitDx=0;exitDy=0;" edge="1" parent="WIyWlLk6GJQsqaUBKTNV-1">
          <mxGeometry y="10" relative="1" as="geometry">
            <mxPoint as="offset" />
            <mxPoint x="262.5" y="1130" as="sourcePoint" />
            <mxPoint x="340" y="1130" as="targetPoint" />
            <Array as="points">
              <mxPoint x="263" y="1130" />
              <mxPoint x="263" y="1130" />
            </Array>
          </mxGeometry>
        </mxCell>
      </root>
    </mxGraphModel>
  </diagram>
</mxfile>
